<?xml version="1.0" encoding="UTF-8"?>
<!DOCTYPE svg PUBLIC "-//W3C//DTD SVG 1.1//EN" "http://www.w3.org/Graphics/SVG/1.1/DTD/svg11.dtd">
<svg xmlns="http://www.w3.org/2000/svg" version="1.1" width="32px" height="32px" style="shape-rendering:geometricPrecision; text-rendering:geometricPrecision; image-rendering:optimizeQuality; fill-rule:evenodd; clip-rule:evenodd" xmlns:xlink="http://www.w3.org/1999/xlink">
<g><path style="opacity:0.87" fill="#97e1fb" d="M 13.5,-0.5 C 14.8333,-0.5 16.1667,-0.5 17.5,-0.5C 25.1667,1.16667 29.8333,5.83333 31.5,13.5C 31.5,14.8333 31.5,16.1667 31.5,17.5C 30.7148,20.4038 29.3815,23.0704 27.5,25.5C 29.2382,19.0729 26.9049,16.4062 20.5,17.5C 20.5,16.8333 20.8333,16.5 21.5,16.5C 23.4228,12.9707 24.0894,8.9707 23.5,4.5C 21.8333,4.5 20.1667,4.5 18.5,4.5C 15.5778,1.96599 12.5778,1.96599 9.5,4.5C 7.83333,4.5 6.16667,4.5 4.5,4.5C 7.09123,2.03904 10.0912,0.372369 13.5,-0.5 Z"/></g>
<g><path style="opacity:1" fill="#36383a" d="M 18.5,4.5 C 18.5,5.16667 18.5,5.83333 18.5,6.5C 15.5,7.83333 12.5,7.83333 9.5,6.5C 9.5,5.83333 9.5,5.16667 9.5,4.5C 12.5778,1.96599 15.5778,1.96599 18.5,4.5 Z"/></g>
<g><path style="opacity:0.875" fill="#a0e6ff" d="M 4.5,4.5 C 4.5,11.8333 4.5,19.1667 4.5,26.5C 2.3199,24.1367 0.65323,21.47 -0.5,18.5C -0.5,16.5 -0.5,14.5 -0.5,12.5C 0.65323,9.52996 2.3199,6.86329 4.5,4.5 Z"/></g>
<g><path style="opacity:1" fill="#fec365" d="M 18.5,4.5 C 20.1667,4.5 21.8333,4.5 23.5,4.5C 24.0894,8.9707 23.4228,12.9707 21.5,16.5C 21.5,13.1667 21.5,9.83333 21.5,6.5C 20.5,6.5 19.5,6.5 18.5,6.5C 18.5,5.83333 18.5,5.16667 18.5,4.5 Z"/></g>
<g><path style="opacity:1" fill="#f2f7fa" d="M 9.5,6.5 C 12.5,7.83333 15.5,7.83333 18.5,6.5C 19.5,6.5 20.5,6.5 21.5,6.5C 21.5,9.83333 21.5,13.1667 21.5,16.5C 20.8333,16.5 20.5,16.8333 20.5,17.5C 18.6565,19.2789 17.9898,21.6122 18.5,24.5C 17.596,23.791 17.2627,22.791 17.5,21.5C 14.1667,21.5 10.8333,21.5 7.5,21.5C 7.5,22.5 7.5,23.5 7.5,24.5C 6.51045,18.69 6.17711,12.69 6.5,6.5C 7.5,6.5 8.5,6.5 9.5,6.5 Z"/></g>
<g><path style="opacity:1" fill="#eaa9bb" d="M 13.5,8.5 C 13.8333,8.5 14.1667,8.5 14.5,8.5C 14.7911,9.64911 15.6244,10.3158 17,10.5C 18.3756,10.3158 19.2089,9.64911 19.5,8.5C 20.404,9.20895 20.7373,10.209 20.5,11.5C 16.2984,11.8168 12.2984,11.4834 8.5,10.5C 10.7812,10.9227 12.4479,10.256 13.5,8.5 Z"/></g>
<g><path style="opacity:1" fill="#f9545b" d="M 14.5,8.5 C 16.1667,8.5 17.8333,8.5 19.5,8.5C 19.2089,9.64911 18.3756,10.3158 17,10.5C 15.6244,10.3158 14.7911,9.64911 14.5,8.5 Z"/></g>
<g><path style="opacity:1" fill="#b53ba9" d="M 13.5,8.5 C 12.4479,10.256 10.7812,10.9227 8.5,10.5C 7.95691,10.44 7.62358,10.1067 7.5,9.5C 9.39605,8.53443 11.396,8.2011 13.5,8.5 Z"/></g>
<g><path style="opacity:1" fill="#fdb639" d="M 4.5,4.5 C 6.16667,4.5 7.83333,4.5 9.5,4.5C 9.5,5.16667 9.5,5.83333 9.5,6.5C 8.5,6.5 7.5,6.5 6.5,6.5C 6.17711,12.69 6.51045,18.69 7.5,24.5C 10.9619,25.4816 14.6286,25.815 18.5,25.5C 14.03,26.4861 9.36329,26.8195 4.5,26.5C 4.5,19.1667 4.5,11.8333 4.5,4.5 Z"/></g>
<g><path style="opacity:1" fill="#f0bec6" d="M 18.5,24.5 C 18.5,24.8333 18.5,25.1667 18.5,25.5C 14.6286,25.815 10.9619,25.4816 7.5,24.5C 7.5,23.5 7.5,22.5 7.5,21.5C 10.8333,21.5 14.1667,21.5 17.5,21.5C 17.2627,22.791 17.596,23.791 18.5,24.5 Z"/></g>
<g><path style="opacity:1" fill="#4da2fd" d="M 20.5,17.5 C 26.9049,16.4062 29.2382,19.0729 27.5,25.5C 27.5,26.1667 27.1667,26.5 26.5,26.5C 25.1667,26.5 23.8333,26.5 22.5,26.5C 21.0413,26.5674 19.7079,26.2341 18.5,25.5C 18.5,25.1667 18.5,24.8333 18.5,24.5C 17.9898,21.6122 18.6565,19.2789 20.5,17.5 Z"/></g>
<g><path style="opacity:1" fill="#bbd2b8" d="M 18.5,25.5 C 19.7079,26.2341 21.0413,26.5674 22.5,26.5C 17.0247,27.4889 11.358,27.8222 5.5,27.5C 4.83333,27.5 4.5,27.1667 4.5,26.5C 9.36329,26.8195 14.03,26.4861 18.5,25.5 Z"/></g>
<g><path style="opacity:0.883" fill="#9de6fe" d="M 22.5,26.5 C 23.8333,26.5 25.1667,26.5 26.5,26.5C 23.9088,28.961 20.9088,30.6276 17.5,31.5C 16.1667,31.5 14.8333,31.5 13.5,31.5C 10.5962,30.7148 7.92955,29.3815 5.5,27.5C 11.358,27.8222 17.0247,27.4889 22.5,26.5 Z"/></g>
</svg>
